<svg xmlns="http://www.w3.org/2000/svg" width="298" height="537">
<path style="fill:#d30110; stroke:none;" d="M0 0L0 2L2 0L0 0z"/>
<path style="fill:#d30110; stroke:none;" d="M0 462C23.6526 458.812 47.7897 447.801 70 439.424C129.458 416.997 186.949 386.238 235.985 345.612C251.668 332.619 265.747 318.257 279.095 302.91C285.267 295.814 293.778 286.891 297.157 278C301.669 266.124 298 246.684 298 234L298 134L298 36C298 28.7641 301.651 6.85742 296.397 1.60339C293.256 -1.53723 285.062 0 281 0L238 0L66 0L18 0C13.6878 0 3.80321 -1.84137 1.02778 2.31787C-3.50406 9.10919 0 27.9067 0 36L0 125L0 462z"/>
<path style="fill:#d30110; stroke:none;" d="M296 0L298 2L298 0L296 0z"/>
<path style="fill:#fac9c9; stroke:none;" d="M297 278C246.832 351.751 165.965 399.598 85 433.011C57.7246 444.267 28.9854 456.001 0 462L0 516C0 520.762 -2.02278 531.77 1.6034 535.397C4.99252 538.786 14.5835 537 19 537L68 537L234 537L278 537C282.719 537 291.61 538.689 295.682 535.972C299.58 533.371 298 525.011 298 521L298 476L298 337L298 297C298 291.113 299.292 283.462 297 278z"/>
<path style="fill:#d30110; stroke:none;" d="M0 535L0 537L2 537L0 535M297 535L296 537L298 537L297 535z"/>
</svg>